<svg width="215" height="185" viewBox="0 0 215 185" fill="none" xmlns="http://www.w3.org/2000/svg">
<path d="M177.769 0.963505C195.483 -2.83245 208.117 5.01867 212.778 17.0211C217.398 28.9204 214.128 44.7598 200.461 57.0944C208.885 79.466 210.871 92.53 209.873 117.971L209.871 118.062L209.835 118.145C205.319 128.933 200.663 136.245 195.103 141.805C189.544 147.365 183.108 151.145 175.086 154.905L173.914 155.454L174.413 154.259C176.635 148.925 178.05 144.809 178.68 139.056C173.036 147.8 162.667 156.534 150.39 164.251C137.23 172.523 121.817 179.664 107.532 184.426L107.374 184.479L107.216 184.426C92.9304 179.664 77.5183 172.523 64.3579 164.251C52.0812 156.534 41.7111 147.8 36.0668 139.056C36.6969 144.809 38.1127 148.925 40.3354 154.259L40.8247 155.433L39.6674 154.907C31.3926 151.146 24.9543 147.365 19.4555 141.803C13.9576 136.242 9.42681 128.929 4.91254 118.145L4.87836 118.062L4.87445 117.971C3.87679 92.53 5.8627 79.4659 14.2866 57.0944C0.620481 44.7599 -2.65021 28.9204 1.97016 17.0211C6.55782 5.20632 18.8715 -2.58627 36.1518 0.793583L36.9789 0.963505L37.0102 0.970341L37.0405 0.981083C45.5159 3.97243 50.5666 6.98153 57.5004 14.3571C70.5209 8.89583 87.9601 4.45183 107.374 4.45179C126.8 4.45187 144.238 9.39362 157.239 14.3658C164.177 6.98372 169.229 3.97364 177.707 0.981083L177.738 0.970341L177.769 0.963505ZM106.815 74.5153C95.3948 74.4522 84.0849 78.7411 77.9623 87.6696L77.935 87.7096L77.9155 87.7545C72.9872 99.1634 70.996 106.8 67.8803 126.374L67.8705 126.435L67.8764 126.498C68.8754 137.487 71.1312 144.494 76.6225 147.697C79.3623 149.295 82.8471 149.908 87.2465 149.663C91.6449 149.417 96.9989 148.312 103.513 146.433L103.766 146.36L103.849 146.111C104.888 142.994 104.874 140.394 103.863 135.844L103.793 135.532L103.481 135.464L102.746 135.298C95.2526 133.568 91.1225 131.146 88.9272 127.506C86.6592 123.746 86.3769 118.569 86.8627 111.148C88.0497 109.735 88.9951 108.802 90.0424 108.046C91.1028 107.28 92.2884 106.68 93.978 105.953H120.771C122.46 106.68 123.646 107.28 124.706 108.046C125.754 108.802 126.698 109.735 127.885 111.148C128.371 118.569 128.09 123.746 125.822 127.506C123.556 131.263 119.228 133.723 111.268 135.464L110.956 135.532L110.886 135.844C109.875 140.394 109.861 142.994 110.9 146.111L110.983 146.36L111.236 146.433C117.75 148.312 123.104 149.417 127.502 149.663C131.902 149.908 135.387 149.295 138.126 147.697C143.618 144.494 145.873 137.487 146.873 126.498L146.876 126.453L146.873 126.408C145.509 111.299 143.124 102.819 136.835 87.7594L136.809 87.6959L136.766 87.6412L136.441 87.2389C129.534 78.8564 118.059 74.5775 106.815 74.5153ZM50.4741 60.652C48.8863 62.7691 47.9885 66.1541 48.4409 69.5797C48.8961 73.0262 50.7221 76.5436 54.6166 78.8805C58.531 81.2291 63.9383 81.2007 68.8061 79.9996C73.6707 78.7993 78.167 76.3855 80.2641 73.7643L80.6743 73.2526L80.0717 72.9928L51.0717 60.4928L50.7104 60.3366L50.4741 60.652ZM163.626 60.4928L134.626 72.9928L134.024 73.2526L134.434 73.7643C136.531 76.3855 141.027 78.7993 145.892 79.9996C150.76 81.2008 156.167 81.2292 160.081 78.8805C163.976 76.5436 165.802 73.0262 166.257 69.5797C166.71 66.1541 165.812 62.7691 164.224 60.652L163.988 60.3366L163.626 60.4928Z" fill="black"/>
</svg>
